<?xml version="1.0" standalone="no"?>
<!DOCTYPE svg PUBLIC "-//W3C//DTD SVG 20010904//EN"
 "http://www.w3.org/TR/2001/REC-SVG-20010904/DTD/svg10.dtd">
<svg version="1.0" xmlns="http://www.w3.org/2000/svg"
 width="1280.000000pt" height="720.000000pt" viewBox="0 0 1280.000000 720.000000"
 preserveAspectRatio="xMidYMid meet">
<metadata>
Created by potrace 1.15, written by Peter Selinger 2001-2017
</metadata>
<g transform="translate(0.000000,720.000000) scale(0.100000,-0.100000)"
fill="#ffffff" stroke="none">
<path d="M11860 6076 c-72 -16 -134 -47 -193 -95 -26 -22 -87 -61 -135 -87
-48 -26 -99 -55 -114 -66 -34 -23 -78 -23 -126 2 -21 11 -58 23 -84 26 -42 6
-48 4 -86 -31 -23 -20 -73 -81 -113 -136 -96 -134 -105 -139 -243 -150 -115
-8 -126 -7 -218 34 -83 37 -264 5 -334 -60 -27 -25 -96 -63 -115 -63 -6 0 -48
-18 -92 -40 -45 -22 -113 -46 -152 -55 -38 -8 -94 -22 -123 -30 -41 -11 -65
-12 -115 -3 -34 6 -66 14 -72 18 -5 4 -33 3 -62 -3 -57 -12 -128 -1 -218 34
-57 22 -89 23 -165 9 -40 -7 -62 -7 -88 2 -34 13 -36 12 -61 -21 -14 -19 -50
-60 -79 -92 -56 -60 -83 -74 -263 -143 -91 -35 -297 -152 -348 -199 -13 -12
-41 -48 -62 -79 -37 -55 -68 -76 -89 -63 -5 3 -10 11 -10 17 0 29 -116 181
-194 253 -48 44 -91 82 -97 83 -5 2 -9 9 -9 15 0 7 -17 25 -37 42 -28 22 -50
30 -92 33 -70 5 -93 -11 -149 -106 -47 -78 -73 -94 -177 -107 -65 -8 -88 -17
-121 -47 -19 -17 -31 -18 -108 -12 -47 4 -83 11 -80 15 3 5 -26 9 -64 9 -54 0
-83 -6 -126 -26 l-57 -26 -40 21 c-22 12 -79 30 -127 41 -101 22 -226 63 -259
85 -13 9 -23 22 -23 30 0 23 -77 102 -141 146 -67 45 -91 68 -84 78 7 12 -26
37 -55 44 -14 3 -88 28 -165 55 -127 44 -269 90 -335 108 -14 3 -44 17 -67 31
-58 34 -194 47 -354 35 l-123 -9 -30 -34 c-17 -19 -46 -45 -63 -58 -18 -12
-33 -28 -33 -35 0 -20 -70 -96 -88 -96 -9 0 -28 9 -42 20 -14 11 -32 19 -40
19 -20 0 -70 -67 -70 -93 0 -54 -37 -123 -105 -194 -80 -85 -99 -97 -195 -117
-39 -8 -80 -20 -91 -26 -11 -5 -40 -51 -65 -101 -24 -51 -56 -107 -70 -125
-28 -37 -76 -62 -82 -44 -2 6 -23 -6 -46 -26 -24 -21 -61 -44 -82 -52 -21 -7
-47 -21 -58 -30 -23 -20 -163 -28 -215 -12 -51 15 -83 51 -138 161 -54 107
-70 120 -151 120 -40 0 -65 -7 -98 -26 -33 -19 -48 -23 -57 -15 -10 8 -17 4
-29 -17 -9 -15 -27 -36 -40 -48 -26 -24 -149 -63 -281 -89 -108 -22 -131 -15
-147 46 -16 59 -35 84 -78 102 -107 46 -203 39 -286 -18 -101 -70 -327 -303
-408 -420 -64 -93 -85 -117 -136 -148 -55 -34 -68 -38 -134 -39 -195 -3 -212
0 -299 36 -86 35 -105 56 -90 98 6 18 78 64 193 125 96 50 90 76 -20 86 -34 4
-85 2 -113 -4 -40 -9 -71 -8 -142 4 -212 36 -253 30 -305 -45 -44 -62 -128
-140 -197 -181 -77 -46 -138 -99 -156 -135 -16 -33 -140 -148 -170 -157 -16
-5 -18 -10 -8 -21 14 -17 15 -16 -82 -18 -67 -2 -82 -6 -125 -33 -27 -18 -70
-38 -96 -44 l-48 -13 0 -940 0 -940 63 67 c53 57 78 74 169 117 59 27 114 50
122 50 8 0 20 9 26 20 31 58 209 -17 351 -149 70 -65 92 -93 120 -152 62 -134
145 -285 206 -377 15 -23 43 -66 61 -95 46 -74 59 -87 86 -87 14 0 38 -15 60
-37 32 -33 39 -36 56 -25 16 10 35 8 102 -10 90 -23 163 -27 303 -14 111 10
187 -3 232 -42 28 -25 149 -182 215 -281 46 -68 67 -76 193 -76 87 0 115 -4
135 -17 30 -20 187 -58 245 -60 91 -1 164 30 265 116 36 30 83 70 104 88 57
48 67 82 80 265 14 191 10 184 138 250 62 32 93 54 104 74 25 49 155 139 232
160 139 39 227 19 300 -69 33 -38 57 -56 99 -72 99 -37 119 -20 153 135 13 55
27 108 32 118 25 49 260 186 379 220 59 18 64 23 108 128 22 55 96 116 180
149 49 19 66 20 186 14 91 -5 147 -3 183 5 45 11 60 10 134 -10 46 -12 117
-25 159 -29 63 -5 87 -12 134 -41 89 -54 190 -133 191 -149 0 -8 7 -37 16 -65
9 -27 21 -95 27 -151 13 -122 28 -167 82 -244 46 -65 179 -170 215 -170 12 0
65 -23 119 -51 75 -40 106 -51 143 -51 80 0 386 -29 410 -39 12 -5 22 -15 22
-24 0 -12 14 -15 78 -14 42 0 86 4 97 8 19 8 19 8 -3 20 -59 32 14 54 183 55
132 1 170 -7 170 -37 0 -22 186 -144 285 -187 84 -37 86 -37 200 -34 63 2 131
6 150 10 83 14 151 72 171 147 35 131 100 189 294 262 81 30 133 32 182 5 21
-11 51 -20 68 -20 17 0 40 -6 51 -14 18 -13 27 -13 75 4 30 10 92 30 139 45
97 30 152 60 148 82 -6 31 96 58 407 109 88 14 173 32 189 40 42 20 50 18 84
-21 25 -28 30 -40 25 -68 -4 -30 -2 -35 24 -46 23 -9 36 -9 66 4 20 8 48 15
61 15 47 0 121 -31 149 -63 25 -29 27 -29 12 -5 -21 34 -13 61 17 56 22 -3 63
-52 103 -119 l19 -34 4 27 c4 32 11 33 78 13 77 -23 99 -20 132 20 16 20 41
38 57 41 15 3 36 9 45 14 34 18 160 161 165 187 4 16 10 35 14 43 12 23 121
78 171 85 25 4 53 11 63 17 10 5 38 11 62 13 23 2 67 16 96 30 42 22 71 28
139 32 129 7 188 -3 219 -37 14 -15 50 -35 79 -45 29 -9 65 -27 80 -39 25 -21
239 -129 308 -155 42 -17 79 -56 102 -112 11 -25 32 -56 47 -67 49 -39 95 -27
205 52 36 26 44 28 75 19 29 -9 47 -7 117 18 46 16 100 29 121 29 l37 0 0
1956 0 1956 -20 -5 c-12 -3 -28 2 -38 12 -9 10 -43 23 -75 30 -31 7 -70 23
-86 37 -30 25 -56 31 -66 15 -3 -6 3 -15 13 -20 48 -26 67 -106 22 -94 -11 3
-20 11 -20 18 0 7 -20 15 -51 18 -28 4 -62 13 -76 22 -13 9 -51 18 -84 20 -34
2 -68 10 -77 18 -10 8 -38 17 -64 20 -42 6 -53 3 -93 -24 -24 -16 -47 -34 -50
-40 -12 -18 -30 -8 -47 27 -16 35 -15 69 3 59 4 -3 13 4 19 16 11 19 10 20 -9
14 -17 -5 -23 -1 -31 21 -8 19 -8 30 0 38 27 27 -16 190 -49 185 -3 0 -31 -6
-61 -13z"/>
<path d="M6803 1373 c-20 -7 -15 -23 6 -23 26 0 51 10 51 21 0 9 -36 11 -57 2z"/>
</g>
</svg>
